G75*
G70*
%OFA0B0*%
%FSLAX24Y24*%
%IPPOS*%
%LPD*%
%AMOC8*
5,1,8,0,0,1.08239X$1,22.5*
%
%ADD10C,0.0740*%
%ADD11C,0.0640*%
%ADD12C,0.0160*%
%ADD13C,0.0100*%
D10*
X001680Y005680D03*
X001680Y007180D03*
X001680Y008180D03*
X005180Y008680D03*
X006180Y008180D03*
X007180Y006930D03*
X006680Y006180D03*
X007680Y006180D03*
X007180Y004930D03*
X006680Y004180D03*
X007680Y004180D03*
X009180Y005680D03*
X010180Y008180D03*
X012180Y008180D03*
X012180Y007180D03*
X012180Y009680D03*
X008180Y009680D03*
X007680Y012680D03*
X006680Y012680D03*
X005180Y012680D03*
X005680Y005680D03*
X006680Y001680D03*
X007680Y001680D03*
X009180Y001680D03*
D11*
X010893Y003149D03*
X011680Y003149D03*
X012467Y003149D03*
D12*
X006207Y001924D02*
X001999Y001924D01*
X002064Y001858D02*
X001858Y002064D01*
X001607Y002210D01*
X001325Y002285D01*
X001035Y002285D01*
X000753Y002210D01*
X000660Y002156D01*
X000660Y012204D01*
X000753Y012150D01*
X001035Y012075D01*
X001325Y012075D01*
X001607Y012150D01*
X001858Y012296D01*
X002064Y012502D01*
X002210Y012753D01*
X002285Y013035D01*
X002285Y013325D01*
X002210Y013607D01*
X002156Y013700D01*
X012204Y013700D01*
X012150Y013607D01*
X012075Y013325D01*
X012075Y013035D01*
X012150Y012753D01*
X012296Y012502D01*
X012502Y012296D01*
X012753Y012150D01*
X013035Y012075D01*
X013325Y012075D01*
X013607Y012150D01*
X013700Y012204D01*
X013700Y001430D01*
X013693Y001329D01*
X013641Y001135D01*
X013541Y000961D01*
X013399Y000819D01*
X013225Y000719D01*
X013031Y000667D01*
X012930Y000660D01*
X002156Y000660D01*
X002210Y000753D01*
X002285Y001035D01*
X002285Y001325D01*
X002210Y001607D01*
X002064Y001858D01*
X002118Y001765D02*
X006150Y001765D01*
X006150Y001785D02*
X006150Y001575D01*
X006231Y001380D01*
X006380Y001231D01*
X006575Y001150D01*
X006785Y001150D01*
X006980Y001231D01*
X007129Y001380D01*
X007180Y001502D01*
X007231Y001380D01*
X007380Y001231D01*
X007575Y001150D01*
X007785Y001150D01*
X007980Y001231D01*
X008129Y001380D01*
X008210Y001575D01*
X008210Y001785D01*
X008129Y001980D01*
X007980Y002129D01*
X007785Y002210D01*
X007575Y002210D01*
X007380Y002129D01*
X007231Y001980D01*
X007180Y001858D01*
X007129Y001980D01*
X006980Y002129D01*
X006785Y002210D01*
X006575Y002210D01*
X006380Y002129D01*
X006231Y001980D01*
X006150Y001785D01*
X006150Y001607D02*
X002210Y001607D01*
X002252Y001448D02*
X006202Y001448D01*
X006321Y001290D02*
X002285Y001290D01*
X002285Y001131D02*
X013639Y001131D01*
X013683Y001290D02*
X009539Y001290D01*
X009480Y001231D02*
X009629Y001380D01*
X009710Y001575D01*
X009710Y001785D01*
X009629Y001980D01*
X009480Y002129D01*
X009285Y002210D01*
X009075Y002210D01*
X008880Y002129D01*
X008731Y001980D01*
X008650Y001785D01*
X008650Y001575D01*
X008731Y001380D01*
X008880Y001231D01*
X009075Y001150D01*
X009285Y001150D01*
X009480Y001231D01*
X009658Y001448D02*
X013700Y001448D01*
X013700Y001607D02*
X009710Y001607D01*
X009710Y001765D02*
X013700Y001765D01*
X013700Y001924D02*
X009653Y001924D01*
X009528Y002082D02*
X013700Y002082D01*
X013700Y002241D02*
X001492Y002241D01*
X001828Y002082D02*
X006332Y002082D01*
X007028Y002082D02*
X007332Y002082D01*
X007207Y001924D02*
X007153Y001924D01*
X007158Y001448D02*
X007202Y001448D01*
X007321Y001290D02*
X007039Y001290D01*
X008039Y001290D02*
X008821Y001290D01*
X008702Y001448D02*
X008158Y001448D01*
X008210Y001607D02*
X008650Y001607D01*
X008650Y001765D02*
X008210Y001765D01*
X008153Y001924D02*
X008707Y001924D01*
X008832Y002082D02*
X008028Y002082D01*
X007785Y003650D02*
X007575Y003650D01*
X007380Y003731D01*
X007231Y003880D01*
X007191Y003974D01*
X007190Y003969D01*
X007150Y003892D01*
X007100Y003822D01*
X007038Y003760D01*
X006968Y003710D01*
X006891Y003670D01*
X006809Y003644D01*
X006723Y003630D01*
X006680Y003630D01*
X006680Y004180D01*
X006680Y004180D01*
X006680Y004730D01*
X006689Y004730D01*
X006650Y004825D01*
X006650Y005035D01*
X006731Y005230D01*
X006880Y005379D01*
X007075Y005460D01*
X007285Y005460D01*
X007480Y005379D01*
X007629Y005230D01*
X007646Y005190D01*
X007947Y005190D01*
X008027Y005110D01*
X012507Y005110D01*
X012630Y004987D01*
X012630Y003601D01*
X012739Y003555D01*
X012874Y003420D01*
X012947Y003244D01*
X012947Y003053D01*
X012874Y002877D01*
X012739Y002742D01*
X012563Y002669D01*
X012372Y002669D01*
X012196Y002742D01*
X012084Y002853D01*
X012061Y002823D01*
X012006Y002767D01*
X011942Y002721D01*
X011872Y002685D01*
X011797Y002661D01*
X011719Y002649D01*
X011680Y002649D01*
X011680Y003148D01*
X011680Y003148D01*
X011680Y002649D01*
X011641Y002649D01*
X011563Y002661D01*
X011488Y002685D01*
X011418Y002721D01*
X011354Y002767D01*
X011299Y002823D01*
X011276Y002853D01*
X011164Y002742D01*
X010988Y002669D01*
X010797Y002669D01*
X010621Y002742D01*
X010486Y002877D01*
X010413Y003053D01*
X010413Y003244D01*
X010486Y003420D01*
X010621Y003555D01*
X010797Y003629D01*
X010988Y003629D01*
X011164Y003555D01*
X011276Y003444D01*
X011299Y003474D01*
X011354Y003530D01*
X011418Y003576D01*
X011488Y003612D01*
X011563Y003636D01*
X011641Y003649D01*
X011680Y003649D01*
X011680Y003149D01*
X011680Y003149D01*
X011680Y003649D01*
X011719Y003649D01*
X011797Y003636D01*
X011872Y003612D01*
X011942Y003576D01*
X012006Y003530D01*
X012061Y003474D01*
X012084Y003444D01*
X012196Y003555D01*
X012210Y003561D01*
X012210Y004690D01*
X007853Y004690D01*
X007773Y004770D01*
X007687Y004770D01*
X007663Y004710D01*
X007785Y004710D01*
X007980Y004629D01*
X008129Y004480D01*
X008210Y004285D01*
X008210Y004075D01*
X008129Y003880D01*
X007980Y003731D01*
X007785Y003650D01*
X007826Y003667D02*
X012210Y003667D01*
X012210Y003826D02*
X008075Y003826D01*
X008172Y003984D02*
X012210Y003984D01*
X012210Y004143D02*
X008210Y004143D01*
X008204Y004301D02*
X012210Y004301D01*
X012210Y004460D02*
X008138Y004460D01*
X007992Y004618D02*
X012210Y004618D01*
X012630Y004618D02*
X013700Y004618D01*
X013700Y004460D02*
X012630Y004460D01*
X012630Y004301D02*
X013700Y004301D01*
X013700Y004143D02*
X012630Y004143D01*
X012630Y003984D02*
X013700Y003984D01*
X013700Y003826D02*
X012630Y003826D01*
X012630Y003667D02*
X013700Y003667D01*
X013700Y003509D02*
X012786Y003509D01*
X012903Y003350D02*
X013700Y003350D01*
X013700Y003192D02*
X012947Y003192D01*
X012939Y003033D02*
X013700Y003033D01*
X013700Y002875D02*
X012872Y002875D01*
X012678Y002716D02*
X013700Y002716D01*
X013700Y002558D02*
X000660Y002558D01*
X000660Y002716D02*
X010682Y002716D01*
X010488Y002875D02*
X000660Y002875D01*
X000660Y003033D02*
X010421Y003033D01*
X010413Y003192D02*
X000660Y003192D01*
X000660Y003350D02*
X010457Y003350D01*
X010574Y003509D02*
X000660Y003509D01*
X000660Y003667D02*
X006479Y003667D01*
X006469Y003670D02*
X006551Y003644D01*
X006637Y003630D01*
X006680Y003630D01*
X006680Y004180D01*
X006680Y004180D01*
X006680Y004180D01*
X006130Y004180D01*
X006130Y004223D01*
X006144Y004309D01*
X006170Y004391D01*
X006210Y004468D01*
X006260Y004538D01*
X006322Y004600D01*
X006392Y004650D01*
X006469Y004690D01*
X006551Y004716D01*
X006637Y004730D01*
X006680Y004730D01*
X006680Y004180D01*
X006130Y004180D01*
X006130Y004137D01*
X006144Y004051D01*
X006170Y003969D01*
X006210Y003892D01*
X006260Y003822D01*
X006322Y003760D01*
X006392Y003710D01*
X006469Y003670D01*
X006680Y003667D02*
X006680Y003667D01*
X006680Y003826D02*
X006680Y003826D01*
X006680Y003984D02*
X006680Y003984D01*
X006680Y004143D02*
X006680Y004143D01*
X006680Y004301D02*
X006680Y004301D01*
X006680Y004460D02*
X006680Y004460D01*
X006680Y004618D02*
X006680Y004618D01*
X006670Y004777D02*
X000660Y004777D01*
X000660Y004935D02*
X006650Y004935D01*
X006674Y005094D02*
X000660Y005094D01*
X000660Y005252D02*
X001358Y005252D01*
X001380Y005231D02*
X001575Y005150D01*
X001785Y005150D01*
X001980Y005231D01*
X002129Y005380D01*
X002210Y005575D01*
X002210Y005785D01*
X002129Y005980D01*
X001980Y006129D01*
X001785Y006210D01*
X001575Y006210D01*
X001380Y006129D01*
X001231Y005980D01*
X001150Y005785D01*
X001150Y005575D01*
X001231Y005380D01*
X001380Y005231D01*
X001218Y005411D02*
X000660Y005411D01*
X000660Y005569D02*
X001152Y005569D01*
X001150Y005728D02*
X000660Y005728D01*
X000660Y005886D02*
X001192Y005886D01*
X001295Y006045D02*
X000660Y006045D01*
X000660Y006203D02*
X001558Y006203D01*
X001802Y006203D02*
X005558Y006203D01*
X005575Y006210D02*
X005380Y006129D01*
X005231Y005980D01*
X005150Y005785D01*
X005150Y005575D01*
X005231Y005380D01*
X005380Y005231D01*
X005575Y005150D01*
X005785Y005150D01*
X005980Y005231D01*
X006129Y005380D01*
X006210Y005575D01*
X006210Y005785D01*
X006129Y005980D01*
X005980Y006129D01*
X005785Y006210D01*
X005575Y006210D01*
X005802Y006203D02*
X006150Y006203D01*
X006150Y006285D02*
X006150Y006075D01*
X006231Y005880D01*
X006380Y005731D01*
X006575Y005650D01*
X006785Y005650D01*
X006980Y005731D01*
X007129Y005880D01*
X007169Y005974D01*
X007170Y005969D01*
X007210Y005892D01*
X007260Y005822D01*
X007322Y005760D01*
X007392Y005710D01*
X007469Y005670D01*
X007551Y005644D01*
X007637Y005630D01*
X007680Y005630D01*
X007723Y005630D01*
X007809Y005644D01*
X007891Y005670D01*
X007968Y005710D01*
X008038Y005760D01*
X008100Y005822D01*
X008150Y005892D01*
X008190Y005969D01*
X008216Y006051D01*
X008230Y006137D01*
X008230Y006180D01*
X008230Y006223D01*
X008216Y006309D01*
X008190Y006391D01*
X008150Y006468D01*
X008100Y006538D01*
X008038Y006600D01*
X007968Y006650D01*
X007891Y006690D01*
X007809Y006716D01*
X007723Y006730D01*
X007680Y006730D01*
X007680Y006180D01*
X008230Y006180D01*
X007680Y006180D01*
X007680Y006180D01*
X007680Y006180D01*
X007680Y005630D01*
X007680Y006180D01*
X007680Y006180D01*
X007680Y006730D01*
X007671Y006730D01*
X007710Y006825D01*
X007710Y007035D01*
X007629Y007230D01*
X007480Y007379D01*
X007285Y007460D01*
X007075Y007460D01*
X006880Y007379D01*
X006731Y007230D01*
X006650Y007035D01*
X006650Y006825D01*
X006697Y006710D01*
X006575Y006710D01*
X006380Y006629D01*
X006231Y006480D01*
X006150Y006285D01*
X006182Y006362D02*
X000660Y006362D01*
X000660Y006520D02*
X006270Y006520D01*
X006499Y006679D02*
X001854Y006679D01*
X001785Y006650D02*
X001980Y006731D01*
X002129Y006880D01*
X002210Y007075D01*
X002210Y007285D01*
X002129Y007480D01*
X001980Y007629D01*
X001858Y007680D01*
X001980Y007731D01*
X002129Y007880D01*
X002210Y008075D01*
X002210Y008285D01*
X002129Y008480D01*
X001980Y008629D01*
X001785Y008710D01*
X001575Y008710D01*
X001380Y008629D01*
X001231Y008480D01*
X001150Y008285D01*
X001150Y008075D01*
X001231Y007880D01*
X001380Y007731D01*
X001502Y007680D01*
X001380Y007629D01*
X001231Y007480D01*
X001150Y007285D01*
X001150Y007075D01*
X001231Y006880D01*
X001380Y006731D01*
X001575Y006650D01*
X001785Y006650D01*
X001506Y006679D02*
X000660Y006679D01*
X000660Y006837D02*
X001273Y006837D01*
X001183Y006996D02*
X000660Y006996D01*
X000660Y007154D02*
X001150Y007154D01*
X001161Y007313D02*
X000660Y007313D01*
X000660Y007471D02*
X001227Y007471D01*
X001380Y007630D02*
X000660Y007630D01*
X000660Y007788D02*
X001322Y007788D01*
X001203Y007947D02*
X000660Y007947D01*
X000660Y008105D02*
X001150Y008105D01*
X001150Y008264D02*
X000660Y008264D01*
X000660Y008422D02*
X001207Y008422D01*
X001331Y008581D02*
X000660Y008581D01*
X000660Y008739D02*
X004650Y008739D01*
X004650Y008785D02*
X004650Y008575D01*
X004731Y008380D01*
X004880Y008231D01*
X005075Y008150D01*
X005285Y008150D01*
X005480Y008231D01*
X005629Y008380D01*
X005710Y008575D01*
X005710Y008785D01*
X005629Y008980D01*
X005480Y009129D01*
X005285Y009210D01*
X005075Y009210D01*
X004880Y009129D01*
X004731Y008980D01*
X004650Y008785D01*
X004696Y008898D02*
X000660Y008898D01*
X000660Y009056D02*
X004806Y009056D01*
X004650Y008581D02*
X002029Y008581D01*
X002153Y008422D02*
X004713Y008422D01*
X004847Y008264D02*
X002210Y008264D01*
X002210Y008105D02*
X005650Y008105D01*
X005650Y008075D02*
X005731Y007880D01*
X005880Y007731D01*
X006075Y007650D01*
X006285Y007650D01*
X006480Y007731D01*
X006629Y007880D01*
X006710Y008075D01*
X006710Y008285D01*
X006629Y008480D01*
X006480Y008629D01*
X006285Y008710D01*
X006075Y008710D01*
X005880Y008629D01*
X005731Y008480D01*
X005650Y008285D01*
X005650Y008075D01*
X005703Y007947D02*
X002157Y007947D01*
X002038Y007788D02*
X005822Y007788D01*
X005650Y008264D02*
X005513Y008264D01*
X005647Y008422D02*
X005707Y008422D01*
X005710Y008581D02*
X005831Y008581D01*
X005710Y008739D02*
X013700Y008739D01*
X013700Y008581D02*
X012529Y008581D01*
X012480Y008629D02*
X012629Y008480D01*
X012710Y008285D01*
X012710Y008075D01*
X012629Y007880D01*
X012480Y007731D01*
X012358Y007680D01*
X012480Y007629D01*
X012629Y007480D01*
X012710Y007285D01*
X012710Y007075D01*
X012629Y006880D01*
X012480Y006731D01*
X012285Y006650D01*
X012075Y006650D01*
X011880Y006731D01*
X011731Y006880D01*
X011650Y007075D01*
X011650Y007285D01*
X011731Y007480D01*
X011880Y007629D01*
X012002Y007680D01*
X011880Y007731D01*
X011731Y007880D01*
X011650Y008075D01*
X011650Y008285D01*
X011731Y008480D01*
X011880Y008629D01*
X012075Y008710D01*
X012285Y008710D01*
X012480Y008629D01*
X012653Y008422D02*
X013700Y008422D01*
X013700Y008264D02*
X012710Y008264D01*
X012710Y008105D02*
X013700Y008105D01*
X013700Y007947D02*
X012657Y007947D01*
X012538Y007788D02*
X013700Y007788D01*
X013700Y007630D02*
X012480Y007630D01*
X012633Y007471D02*
X013700Y007471D01*
X013700Y007313D02*
X012699Y007313D01*
X012710Y007154D02*
X013700Y007154D01*
X013700Y006996D02*
X012677Y006996D01*
X012587Y006837D02*
X013700Y006837D01*
X013700Y006679D02*
X012354Y006679D01*
X012006Y006679D02*
X007913Y006679D01*
X008113Y006520D02*
X013700Y006520D01*
X013700Y006362D02*
X008199Y006362D01*
X008230Y006203D02*
X009058Y006203D01*
X009075Y006210D02*
X008880Y006129D01*
X008731Y005980D01*
X008650Y005785D01*
X008650Y005575D01*
X008731Y005380D01*
X008880Y005231D01*
X009075Y005150D01*
X009285Y005150D01*
X009480Y005231D01*
X009629Y005380D01*
X009710Y005575D01*
X009710Y005785D01*
X009629Y005980D01*
X009480Y006129D01*
X009285Y006210D01*
X009075Y006210D01*
X009302Y006203D02*
X013700Y006203D01*
X013700Y006045D02*
X009565Y006045D01*
X009668Y005886D02*
X013700Y005886D01*
X013700Y005728D02*
X009710Y005728D01*
X009708Y005569D02*
X013700Y005569D01*
X013700Y005411D02*
X009642Y005411D01*
X009502Y005252D02*
X013700Y005252D01*
X013700Y005094D02*
X012523Y005094D01*
X012630Y004935D02*
X013700Y004935D01*
X013700Y004777D02*
X012630Y004777D01*
X012149Y003509D02*
X012027Y003509D01*
X011680Y003509D02*
X011680Y003509D01*
X011680Y003350D02*
X011680Y003350D01*
X011680Y003192D02*
X011680Y003192D01*
X011680Y003033D02*
X011680Y003033D01*
X011680Y002875D02*
X011680Y002875D01*
X011680Y002716D02*
X011680Y002716D01*
X011933Y002716D02*
X012257Y002716D01*
X011427Y002716D02*
X011103Y002716D01*
X011211Y003509D02*
X011333Y003509D01*
X013700Y002399D02*
X000660Y002399D01*
X000660Y002241D02*
X000868Y002241D01*
X002268Y000973D02*
X013547Y000973D01*
X013390Y000814D02*
X002226Y000814D01*
X000660Y003826D02*
X006258Y003826D01*
X006165Y003984D02*
X000660Y003984D01*
X000660Y004143D02*
X006130Y004143D01*
X006142Y004301D02*
X000660Y004301D01*
X000660Y004460D02*
X006205Y004460D01*
X006347Y004618D02*
X000660Y004618D01*
X002002Y005252D02*
X005358Y005252D01*
X005218Y005411D02*
X002142Y005411D01*
X002208Y005569D02*
X005152Y005569D01*
X005150Y005728D02*
X002210Y005728D01*
X002168Y005886D02*
X005192Y005886D01*
X005295Y006045D02*
X002065Y006045D01*
X002087Y006837D02*
X006650Y006837D01*
X006650Y006996D02*
X002177Y006996D01*
X002210Y007154D02*
X006699Y007154D01*
X006813Y007313D02*
X002199Y007313D01*
X002133Y007471D02*
X011727Y007471D01*
X011880Y007630D02*
X001980Y007630D01*
X000660Y009215D02*
X007919Y009215D01*
X007880Y009231D02*
X008075Y009150D01*
X008285Y009150D01*
X008480Y009231D01*
X008629Y009380D01*
X008710Y009575D01*
X008710Y009785D01*
X008629Y009980D01*
X008480Y010129D01*
X008285Y010210D01*
X008075Y010210D01*
X007880Y010129D01*
X007731Y009980D01*
X007650Y009785D01*
X007650Y009575D01*
X007731Y009380D01*
X007880Y009231D01*
X007737Y009373D02*
X000660Y009373D01*
X000660Y009532D02*
X007668Y009532D01*
X007650Y009690D02*
X000660Y009690D01*
X000660Y009849D02*
X007676Y009849D01*
X007757Y010007D02*
X000660Y010007D01*
X000660Y010166D02*
X007967Y010166D01*
X008393Y010166D02*
X011967Y010166D01*
X011880Y010129D02*
X012075Y010210D01*
X012285Y010210D01*
X012480Y010129D01*
X012629Y009980D01*
X012710Y009785D01*
X012710Y009575D01*
X012629Y009380D01*
X012480Y009231D01*
X012285Y009150D01*
X012075Y009150D01*
X011880Y009231D01*
X011731Y009380D01*
X011650Y009575D01*
X011650Y009785D01*
X011731Y009980D01*
X011880Y010129D01*
X011757Y010007D02*
X008603Y010007D01*
X008684Y009849D02*
X011676Y009849D01*
X011650Y009690D02*
X008710Y009690D01*
X008692Y009532D02*
X011668Y009532D01*
X011737Y009373D02*
X008623Y009373D01*
X008441Y009215D02*
X011919Y009215D01*
X012441Y009215D02*
X013700Y009215D01*
X013700Y009373D02*
X012623Y009373D01*
X012692Y009532D02*
X013700Y009532D01*
X013700Y009690D02*
X012710Y009690D01*
X012684Y009849D02*
X013700Y009849D01*
X013700Y010007D02*
X012603Y010007D01*
X012393Y010166D02*
X013700Y010166D01*
X013700Y010324D02*
X000660Y010324D01*
X000660Y010483D02*
X013700Y010483D01*
X013700Y010641D02*
X000660Y010641D01*
X000660Y010800D02*
X013700Y010800D01*
X013700Y010958D02*
X000660Y010958D01*
X000660Y011117D02*
X013700Y011117D01*
X013700Y011275D02*
X000660Y011275D01*
X000660Y011434D02*
X013700Y011434D01*
X013700Y011592D02*
X000660Y011592D01*
X000660Y011751D02*
X013700Y011751D01*
X013700Y011909D02*
X000660Y011909D01*
X000660Y012068D02*
X013700Y012068D01*
X012622Y012226D02*
X007969Y012226D01*
X007980Y012231D02*
X008129Y012380D01*
X008210Y012575D01*
X008210Y012785D01*
X008129Y012980D01*
X007980Y013129D01*
X007785Y013210D01*
X007575Y013210D01*
X007380Y013129D01*
X007231Y012980D01*
X007180Y012858D01*
X007129Y012980D01*
X006980Y013129D01*
X006785Y013210D01*
X006575Y013210D01*
X006380Y013129D01*
X006231Y012980D01*
X006150Y012785D01*
X006150Y012575D01*
X006231Y012380D01*
X006380Y012231D01*
X006575Y012150D01*
X006785Y012150D01*
X006980Y012231D01*
X007129Y012380D01*
X007180Y012502D01*
X007231Y012380D01*
X007380Y012231D01*
X007575Y012150D01*
X007785Y012150D01*
X007980Y012231D01*
X008131Y012385D02*
X012413Y012385D01*
X012272Y012543D02*
X008197Y012543D01*
X008210Y012702D02*
X012180Y012702D01*
X012122Y012860D02*
X008179Y012860D01*
X008091Y013019D02*
X012079Y013019D01*
X012075Y013177D02*
X007865Y013177D01*
X007495Y013177D02*
X006865Y013177D01*
X007091Y013019D02*
X007269Y013019D01*
X007181Y012860D02*
X007179Y012860D01*
X007131Y012385D02*
X007229Y012385D01*
X007391Y012226D02*
X006969Y012226D01*
X006391Y012226D02*
X005469Y012226D01*
X005480Y012231D02*
X005629Y012380D01*
X005710Y012575D01*
X005710Y012785D01*
X005629Y012980D01*
X005480Y013129D01*
X005285Y013210D01*
X005075Y013210D01*
X004880Y013129D01*
X004731Y012980D01*
X004650Y012785D01*
X004650Y012575D01*
X004731Y012380D01*
X004880Y012231D01*
X005075Y012150D01*
X005285Y012150D01*
X005480Y012231D01*
X005631Y012385D02*
X006229Y012385D01*
X006163Y012543D02*
X005697Y012543D01*
X005710Y012702D02*
X006150Y012702D01*
X006181Y012860D02*
X005679Y012860D01*
X005591Y013019D02*
X006269Y013019D01*
X006495Y013177D02*
X005365Y013177D01*
X004995Y013177D02*
X002285Y013177D01*
X002281Y013019D02*
X004769Y013019D01*
X004681Y012860D02*
X002238Y012860D01*
X002180Y012702D02*
X004650Y012702D01*
X004663Y012543D02*
X002088Y012543D01*
X001947Y012385D02*
X004729Y012385D01*
X004891Y012226D02*
X001738Y012226D01*
X002282Y013336D02*
X012078Y013336D01*
X012120Y013494D02*
X002240Y013494D01*
X002183Y013653D02*
X012177Y013653D01*
X013700Y009056D02*
X005554Y009056D01*
X005664Y008898D02*
X013700Y008898D01*
X011831Y008581D02*
X010529Y008581D01*
X010480Y008629D02*
X010285Y008710D01*
X010075Y008710D01*
X009880Y008629D01*
X009731Y008480D01*
X009650Y008285D01*
X009650Y008075D01*
X009731Y007880D01*
X009880Y007731D01*
X010075Y007650D01*
X010285Y007650D01*
X010480Y007731D01*
X010629Y007880D01*
X010710Y008075D01*
X010710Y008285D01*
X010629Y008480D01*
X010480Y008629D01*
X010653Y008422D02*
X011707Y008422D01*
X011650Y008264D02*
X010710Y008264D01*
X010710Y008105D02*
X011650Y008105D01*
X011703Y007947D02*
X010657Y007947D01*
X010538Y007788D02*
X011822Y007788D01*
X011661Y007313D02*
X007547Y007313D01*
X007661Y007154D02*
X011650Y007154D01*
X011683Y006996D02*
X007710Y006996D01*
X007710Y006837D02*
X011773Y006837D01*
X009822Y007788D02*
X006538Y007788D01*
X006657Y007947D02*
X009703Y007947D01*
X009650Y008105D02*
X006710Y008105D01*
X006710Y008264D02*
X009650Y008264D01*
X009707Y008422D02*
X006653Y008422D01*
X006529Y008581D02*
X009831Y008581D01*
X007680Y006679D02*
X007680Y006679D01*
X007680Y006520D02*
X007680Y006520D01*
X007680Y006362D02*
X007680Y006362D01*
X007680Y006203D02*
X007680Y006203D01*
X007680Y006045D02*
X007680Y006045D01*
X007680Y005886D02*
X007680Y005886D01*
X007680Y005728D02*
X007680Y005728D01*
X007993Y005728D02*
X008650Y005728D01*
X008652Y005569D02*
X006208Y005569D01*
X006210Y005728D02*
X006387Y005728D01*
X006228Y005886D02*
X006168Y005886D01*
X006162Y006045D02*
X006065Y006045D01*
X006142Y005411D02*
X006955Y005411D01*
X006752Y005252D02*
X006002Y005252D01*
X006973Y005728D02*
X007367Y005728D01*
X007214Y005886D02*
X007132Y005886D01*
X007405Y005411D02*
X008718Y005411D01*
X008858Y005252D02*
X007608Y005252D01*
X008146Y005886D02*
X008692Y005886D01*
X008795Y006045D02*
X008214Y006045D01*
X007285Y003826D02*
X007102Y003826D01*
X006881Y003667D02*
X007534Y003667D01*
D13*
X007940Y004900D02*
X007860Y004980D01*
X007220Y004980D01*
X007180Y004930D01*
X007940Y004900D02*
X012420Y004900D01*
X012420Y003220D01*
X012467Y003149D01*
M02*
