%
M48
M72
T01C0.0276
T02C0.0320
T03C0.0354
T04C0.1250
%
T01
X10893Y3149
X11680Y3149
X12467Y3149
T02
X12180Y7180
X12180Y8180
X7680Y6180
X7180Y6930
X6680Y6180
X7180Y4930
X6680Y4180
X7680Y4180
X7680Y1680
X6680Y1680
X1680Y7180
X1680Y8180
X6680Y12680
X7680Y12680
T03
X5180Y12680
X8180Y9680
X6180Y8180
X5180Y8680
X5680Y5680
X9180Y5680
X10180Y8180
X12180Y9680
X9180Y1680
X1680Y5680
T04
X1180Y1180
X1180Y13180
X13180Y13180
M30
