G75*
G70*
%OFA0B0*%
%FSLAX24Y24*%
%IPPOS*%
%LPD*%
%AMOC8*
5,1,8,0,0,1.08239X$1,22.5*
%
%ADD10C,0.0000*%
%ADD11C,0.0740*%
%ADD12C,0.0640*%
%ADD13C,0.0100*%
D10*
X000555Y001180D02*
X000557Y001230D01*
X000563Y001279D01*
X000573Y001328D01*
X000586Y001375D01*
X000604Y001422D01*
X000625Y001467D01*
X000649Y001510D01*
X000677Y001551D01*
X000708Y001590D01*
X000742Y001626D01*
X000779Y001660D01*
X000819Y001690D01*
X000860Y001717D01*
X000904Y001741D01*
X000949Y001761D01*
X000996Y001777D01*
X001044Y001790D01*
X001093Y001799D01*
X001143Y001804D01*
X001192Y001805D01*
X001242Y001802D01*
X001291Y001795D01*
X001340Y001784D01*
X001387Y001770D01*
X001433Y001751D01*
X001478Y001729D01*
X001521Y001704D01*
X001561Y001675D01*
X001599Y001643D01*
X001635Y001609D01*
X001668Y001571D01*
X001697Y001531D01*
X001723Y001489D01*
X001746Y001445D01*
X001765Y001399D01*
X001781Y001352D01*
X001793Y001303D01*
X001801Y001254D01*
X001805Y001205D01*
X001805Y001155D01*
X001801Y001106D01*
X001793Y001057D01*
X001781Y001008D01*
X001765Y000961D01*
X001746Y000915D01*
X001723Y000871D01*
X001697Y000829D01*
X001668Y000789D01*
X001635Y000751D01*
X001599Y000717D01*
X001561Y000685D01*
X001521Y000656D01*
X001478Y000631D01*
X001433Y000609D01*
X001387Y000590D01*
X001340Y000576D01*
X001291Y000565D01*
X001242Y000558D01*
X001192Y000555D01*
X001143Y000556D01*
X001093Y000561D01*
X001044Y000570D01*
X000996Y000583D01*
X000949Y000599D01*
X000904Y000619D01*
X000860Y000643D01*
X000819Y000670D01*
X000779Y000700D01*
X000742Y000734D01*
X000708Y000770D01*
X000677Y000809D01*
X000649Y000850D01*
X000625Y000893D01*
X000604Y000938D01*
X000586Y000985D01*
X000573Y001032D01*
X000563Y001081D01*
X000557Y001130D01*
X000555Y001180D01*
X000180Y001430D02*
X000180Y012930D01*
X000555Y013180D02*
X000557Y013230D01*
X000563Y013279D01*
X000573Y013328D01*
X000586Y013375D01*
X000604Y013422D01*
X000625Y013467D01*
X000649Y013510D01*
X000677Y013551D01*
X000708Y013590D01*
X000742Y013626D01*
X000779Y013660D01*
X000819Y013690D01*
X000860Y013717D01*
X000904Y013741D01*
X000949Y013761D01*
X000996Y013777D01*
X001044Y013790D01*
X001093Y013799D01*
X001143Y013804D01*
X001192Y013805D01*
X001242Y013802D01*
X001291Y013795D01*
X001340Y013784D01*
X001387Y013770D01*
X001433Y013751D01*
X001478Y013729D01*
X001521Y013704D01*
X001561Y013675D01*
X001599Y013643D01*
X001635Y013609D01*
X001668Y013571D01*
X001697Y013531D01*
X001723Y013489D01*
X001746Y013445D01*
X001765Y013399D01*
X001781Y013352D01*
X001793Y013303D01*
X001801Y013254D01*
X001805Y013205D01*
X001805Y013155D01*
X001801Y013106D01*
X001793Y013057D01*
X001781Y013008D01*
X001765Y012961D01*
X001746Y012915D01*
X001723Y012871D01*
X001697Y012829D01*
X001668Y012789D01*
X001635Y012751D01*
X001599Y012717D01*
X001561Y012685D01*
X001521Y012656D01*
X001478Y012631D01*
X001433Y012609D01*
X001387Y012590D01*
X001340Y012576D01*
X001291Y012565D01*
X001242Y012558D01*
X001192Y012555D01*
X001143Y012556D01*
X001093Y012561D01*
X001044Y012570D01*
X000996Y012583D01*
X000949Y012599D01*
X000904Y012619D01*
X000860Y012643D01*
X000819Y012670D01*
X000779Y012700D01*
X000742Y012734D01*
X000708Y012770D01*
X000677Y012809D01*
X000649Y012850D01*
X000625Y012893D01*
X000604Y012938D01*
X000586Y012985D01*
X000573Y013032D01*
X000563Y013081D01*
X000557Y013130D01*
X000555Y013180D01*
X000180Y012930D02*
X000182Y012998D01*
X000187Y013065D01*
X000196Y013132D01*
X000209Y013199D01*
X000226Y013264D01*
X000245Y013329D01*
X000269Y013393D01*
X000296Y013455D01*
X000326Y013516D01*
X000359Y013574D01*
X000395Y013631D01*
X000435Y013686D01*
X000477Y013739D01*
X000523Y013790D01*
X000570Y013837D01*
X000621Y013883D01*
X000674Y013925D01*
X000729Y013965D01*
X000786Y014001D01*
X000844Y014034D01*
X000905Y014064D01*
X000967Y014091D01*
X001031Y014115D01*
X001096Y014134D01*
X001161Y014151D01*
X001228Y014164D01*
X001295Y014173D01*
X001362Y014178D01*
X001430Y014180D01*
X012930Y014180D01*
X012555Y013180D02*
X012557Y013230D01*
X012563Y013279D01*
X012573Y013328D01*
X012586Y013375D01*
X012604Y013422D01*
X012625Y013467D01*
X012649Y013510D01*
X012677Y013551D01*
X012708Y013590D01*
X012742Y013626D01*
X012779Y013660D01*
X012819Y013690D01*
X012860Y013717D01*
X012904Y013741D01*
X012949Y013761D01*
X012996Y013777D01*
X013044Y013790D01*
X013093Y013799D01*
X013143Y013804D01*
X013192Y013805D01*
X013242Y013802D01*
X013291Y013795D01*
X013340Y013784D01*
X013387Y013770D01*
X013433Y013751D01*
X013478Y013729D01*
X013521Y013704D01*
X013561Y013675D01*
X013599Y013643D01*
X013635Y013609D01*
X013668Y013571D01*
X013697Y013531D01*
X013723Y013489D01*
X013746Y013445D01*
X013765Y013399D01*
X013781Y013352D01*
X013793Y013303D01*
X013801Y013254D01*
X013805Y013205D01*
X013805Y013155D01*
X013801Y013106D01*
X013793Y013057D01*
X013781Y013008D01*
X013765Y012961D01*
X013746Y012915D01*
X013723Y012871D01*
X013697Y012829D01*
X013668Y012789D01*
X013635Y012751D01*
X013599Y012717D01*
X013561Y012685D01*
X013521Y012656D01*
X013478Y012631D01*
X013433Y012609D01*
X013387Y012590D01*
X013340Y012576D01*
X013291Y012565D01*
X013242Y012558D01*
X013192Y012555D01*
X013143Y012556D01*
X013093Y012561D01*
X013044Y012570D01*
X012996Y012583D01*
X012949Y012599D01*
X012904Y012619D01*
X012860Y012643D01*
X012819Y012670D01*
X012779Y012700D01*
X012742Y012734D01*
X012708Y012770D01*
X012677Y012809D01*
X012649Y012850D01*
X012625Y012893D01*
X012604Y012938D01*
X012586Y012985D01*
X012573Y013032D01*
X012563Y013081D01*
X012557Y013130D01*
X012555Y013180D01*
X012930Y014180D02*
X012998Y014178D01*
X013065Y014173D01*
X013132Y014164D01*
X013199Y014151D01*
X013264Y014134D01*
X013329Y014115D01*
X013393Y014091D01*
X013455Y014064D01*
X013516Y014034D01*
X013574Y014001D01*
X013631Y013965D01*
X013686Y013925D01*
X013739Y013883D01*
X013790Y013837D01*
X013837Y013790D01*
X013883Y013739D01*
X013925Y013686D01*
X013965Y013631D01*
X014001Y013574D01*
X014034Y013516D01*
X014064Y013455D01*
X014091Y013393D01*
X014115Y013329D01*
X014134Y013264D01*
X014151Y013199D01*
X014164Y013132D01*
X014173Y013065D01*
X014178Y012998D01*
X014180Y012930D01*
X014180Y001430D01*
X014178Y001362D01*
X014173Y001295D01*
X014164Y001228D01*
X014151Y001161D01*
X014134Y001096D01*
X014115Y001031D01*
X014091Y000967D01*
X014064Y000905D01*
X014034Y000844D01*
X014001Y000786D01*
X013965Y000729D01*
X013925Y000674D01*
X013883Y000621D01*
X013837Y000570D01*
X013790Y000523D01*
X013739Y000477D01*
X013686Y000435D01*
X013631Y000395D01*
X013574Y000359D01*
X013516Y000326D01*
X013455Y000296D01*
X013393Y000269D01*
X013329Y000245D01*
X013264Y000226D01*
X013199Y000209D01*
X013132Y000196D01*
X013065Y000187D01*
X012998Y000182D01*
X012930Y000180D01*
X001430Y000180D01*
X001362Y000182D01*
X001295Y000187D01*
X001228Y000196D01*
X001161Y000209D01*
X001096Y000226D01*
X001031Y000245D01*
X000967Y000269D01*
X000905Y000296D01*
X000844Y000326D01*
X000786Y000359D01*
X000729Y000395D01*
X000674Y000435D01*
X000621Y000477D01*
X000570Y000523D01*
X000523Y000570D01*
X000477Y000621D01*
X000435Y000674D01*
X000395Y000729D01*
X000359Y000786D01*
X000326Y000844D01*
X000296Y000905D01*
X000269Y000967D01*
X000245Y001031D01*
X000226Y001096D01*
X000209Y001161D01*
X000196Y001228D01*
X000187Y001295D01*
X000182Y001362D01*
X000180Y001430D01*
D11*
X001680Y005680D03*
X001680Y007180D03*
X001680Y008180D03*
X005180Y008680D03*
X006180Y008180D03*
X007180Y006930D03*
X006680Y006180D03*
X007680Y006180D03*
X007180Y004930D03*
X006680Y004180D03*
X007680Y004180D03*
X009180Y005680D03*
X010180Y008180D03*
X012180Y008180D03*
X012180Y007180D03*
X012180Y009680D03*
X008180Y009680D03*
X007680Y012680D03*
X006680Y012680D03*
X005180Y012680D03*
X005680Y005680D03*
X006680Y001680D03*
X007680Y001680D03*
X009180Y001680D03*
D12*
X010893Y003149D03*
X011680Y003149D03*
X012467Y003149D03*
D13*
X010893Y003149D02*
X010820Y003220D01*
X010180Y003860D01*
X010180Y008180D01*
X009140Y008660D02*
X009140Y005700D01*
X009180Y005680D01*
X009140Y005620D01*
X007700Y004180D01*
X007680Y004180D01*
X006180Y003700D02*
X006180Y005700D01*
X006660Y006180D01*
X006680Y006180D01*
X007180Y006930D02*
X007140Y006980D01*
X006180Y007940D01*
X006180Y008180D01*
X005220Y008660D02*
X005180Y008680D01*
X005220Y008740D01*
X008180Y008740D01*
X008180Y009620D01*
X008180Y009680D01*
X008180Y009620D02*
X009140Y008660D01*
X012180Y008180D02*
X012180Y009680D01*
X012180Y007220D02*
X012180Y007180D01*
X012180Y007220D02*
X007220Y012180D01*
X007220Y012260D01*
X007620Y012660D01*
X007680Y012680D01*
X007220Y012260D02*
X002420Y007460D01*
X001700Y008180D01*
X001680Y008180D01*
X002420Y007460D02*
X006180Y003700D01*
X006180Y002180D01*
X006680Y001680D01*
X007680Y001680D02*
X007700Y001700D01*
X009140Y001700D01*
X009180Y001680D01*
X005680Y005680D02*
X005620Y005700D01*
X005220Y006100D01*
X005220Y008660D01*
X001700Y007140D02*
X001700Y005700D01*
X001680Y005680D01*
X001700Y007140D02*
X001680Y007180D01*
X005180Y012680D02*
X005220Y012740D01*
X006660Y012740D01*
X006680Y012680D01*
M02*
